<svg width="50" height="29" viewBox="0 0 50 29" fill="none" xmlns="http://www.w3.org/2000/svg">
<g filter="url(#filter0_d_5_2053)">
<path d="M12 3H42C42.5304 3 43.0392 3.21071 43.4142 3.58579C43.7893 3.96086 44 4.46957 44 5L40.523 17.988C40.223 19.11 39.623 19.988 38.523 19.988H8.52301C7.99258 19.988 7.48387 19.7773 7.1088 19.4022C6.73372 19.0271 6.52301 18.5184 6.52301 17.988L10 5C10.284 3.939 10.9 3 12 3Z" fill="white"/>
</g>
<path d="M12.193 12.1879C12.2222 10.7368 12.818 9.35471 13.8528 8.33704C14.8877 7.31936 16.2796 6.74688 17.731 6.74195C18.4568 6.70087 19.1799 6.85964 19.8217 7.20099C20.4635 7.54235 20.9994 8.0532 21.371 8.67795L19.723 9.83495C19.4957 9.44625 19.1684 9.12551 18.7752 8.90605C18.382 8.68659 17.9372 8.57641 17.487 8.58695C16.6014 8.64963 15.7738 9.05045 15.1755 9.70643C14.5772 10.3624 14.2541 11.2233 14.273 12.1109C14.2597 12.4054 14.3083 12.6993 14.4156 12.9738C14.5229 13.2483 14.6866 13.4972 14.896 13.7045C15.1055 13.9118 15.3561 14.0729 15.6317 14.1774C15.9073 14.2818 16.2017 14.3273 16.496 14.3109C17.2949 14.2911 18.0566 13.9696 18.628 13.4109L19.928 14.7619C19.4748 15.2108 18.9368 15.565 18.3453 15.804C17.7539 16.043 17.1208 16.1619 16.483 16.1539C14 16.1539 12.193 14.6199 12.193 12.1879Z" fill="#A60000"/>
<path d="M24.777 8.74402H22.008L22.502 6.90002H30.043L29.543 8.74702H26.779L24.829 16H22.829L24.777 8.74402Z" fill="#A60000"/>
<path d="M33.396 6.83301H35.323L36.763 16H34.71L34.423 13.957H30.575L29.197 16H27.039L33.396 6.83301ZM34.189 12.188L33.773 9.18801L31.773 12.188H34.189Z" fill="#A60000"/>
<defs>
<filter id="filter0_d_5_2053" x="0.52301" y="0" width="49.477" height="28.988" filterUnits="userSpaceOnUse" color-interpolation-filters="sRGB">
<feFlood flood-opacity="0" result="BackgroundImageFix"/>
<feColorMatrix in="SourceAlpha" type="matrix" values="0 0 0 0 0 0 0 0 0 0 0 0 0 0 0 0 0 0 127 0" result="hardAlpha"/>
<feOffset dy="3"/>
<feGaussianBlur stdDeviation="3"/>
<feColorMatrix type="matrix" values="0 0 0 0 0 0 0 0 0 0 0 0 0 0 0 0 0 0 0.161 0"/>
<feBlend mode="normal" in2="BackgroundImageFix" result="effect1_dropShadow_5_2053"/>
<feBlend mode="normal" in="SourceGraphic" in2="effect1_dropShadow_5_2053" result="shape"/>
</filter>
</defs>
</svg>
